<svg width="59" height="17" viewBox="0 0 59 17" fill="none" xmlns="http://www.w3.org/2000/svg">
<path d="M0 16.3968H4.55627V6.77957L8.27175 16.3968H12.1289L15.6196 6.77957V16.3968H20.2732V0.482056H13.8436L10.1366 9.98057L6.55713 0.482056H0V16.3968Z" fill="#EF7D0A"/>
<path d="M53.926 11.4054C53.926 11.4054 53.1778 12.1947 52.7301 12.472C49.6381 14.3812 46.171 12.9945 45.6127 9.57594C45.2859 7.57555 45.6335 5.61886 47.59 4.42965C49.5049 3.26513 51.5208 3.33352 53.2544 4.88367C53.5236 5.12494 53.8032 5.30921 54.0866 5.44789L58.9991 4.94351C58.6779 4.45434 57.5508 2.4853 57.1475 2.11201C54.439 -0.3918 47.6287 -0.719498 43.9019 1.39772C40.6531 3.24328 39.0962 7.14147 40.1307 10.8411C41.252 14.8524 44.6633 17.0085 49.8676 17C52.3937 16.981 54.8698 16.6324 56.8026 15.0062C57.2183 14.6567 58.5664 13.098 59 12.6592L53.9289 11.4054H53.926Z" fill="#EF7D0A"/>
<path d="M23.3349 0.482056V16.3968H37.7727V13.306L28.4136 13.2443V10.2893H37.7727V6.53356L28.4136 6.5953V3.88632L37.7727 3.94711V0.482056H23.3349Z" fill="#EF7D0A"/>
</svg>
