<svg width="107" height="21" viewBox="0 0 107 21" fill="none" xmlns="http://www.w3.org/2000/svg">
<path d="M14.9069 0H6.10354C2.27964 0 0 2.2785 0 6.1005V14.889C0 18.7215 2.27964 21 6.10354 21H14.8964C18.7203 21 21 18.7215 21 14.8995V6.1005C21.0105 2.2785 18.7308 0 14.9069 0ZM10.5052 14.574C8.25711 14.574 6.4292 12.747 6.4292 10.5C6.4292 8.253 8.25711 6.426 10.5052 6.426C12.7534 6.426 14.5813 8.253 14.5813 10.5C14.5813 12.747 12.7534 14.574 10.5052 14.574ZM16.7243 5.124C16.6718 5.25 16.5983 5.3655 16.5037 5.4705C16.3987 5.565 16.2831 5.6385 16.1571 5.691C16.031 5.7435 15.8944 5.775 15.7579 5.775C15.4742 5.775 15.2116 5.67 15.012 5.4705C14.9174 5.3655 14.8439 5.25 14.7914 5.124C14.7388 4.998 14.7073 4.8615 14.7073 4.725C14.7073 4.5885 14.7388 4.452 14.7914 4.326C14.8439 4.1895 14.9174 4.0845 15.012 3.9795C15.2536 3.738 15.6213 3.6225 15.9575 3.696C16.031 3.7065 16.094 3.7275 16.1571 3.759C16.2201 3.78 16.2831 3.8115 16.3461 3.8535C16.3987 3.885 16.4512 3.9375 16.5037 3.9795C16.5983 4.0845 16.6718 4.1895 16.7243 4.326C16.7769 4.452 16.8084 4.5885 16.8084 4.725C16.8084 4.8615 16.7769 4.998 16.7243 5.124Z" fill="#EF7D0A"/>
<path d="M58.75 0H48.25C45.1 0 43 1.85294 43 6.17647V14.8235C43 19.1471 45.1 21 48.25 21H58.75C61.9 21 64 19.1471 64 14.8235V6.17647C64 1.85294 61.9 0 58.75 0ZM59.2435 7.52294L55.957 10.6112C55.264 11.2659 54.382 11.5871 53.5 11.5871C52.618 11.5871 51.7255 11.2659 51.043 10.6112L47.7565 7.52294C47.4205 7.20177 47.368 6.60882 47.6305 6.21353C47.9035 5.81824 48.397 5.74412 48.733 6.06529L52.0195 9.15353C52.8175 9.90706 54.172 9.90706 54.97 9.15353L58.2565 6.06529C58.5925 5.74412 59.0965 5.80588 59.359 6.21353C59.632 6.60882 59.5795 7.20177 59.2435 7.52294Z" fill="#EF7D0A"/>
<path d="M86.0173 9.87963C86.3742 3.79047 91.907 -0.902409 98.2797 0.147453C102.668 0.871859 106.185 4.43087 106.868 8.81927C107.267 11.3599 106.742 13.7641 105.597 15.7484L106.532 19.2234C106.742 20.0108 106.017 20.7247 105.24 20.5042L101.818 19.5594C100.264 20.4727 98.4476 20.9977 96.5054 20.9977C90.5842 20.9977 85.6708 15.7799 86.0173 9.87963ZM91.3716 14.4045C91.4661 14.5935 91.5815 14.772 91.7285 14.94C91.991 15.2234 92.2745 15.4334 92.5894 15.5594C92.9044 15.6959 93.2508 15.7589 93.6183 15.7589C94.1537 15.7589 94.7311 15.633 95.3296 15.3705C95.9385 15.1081 96.5369 14.7615 97.1353 14.331C97.7442 13.8901 98.3112 13.3967 98.8571 12.8612C99.403 12.3153 99.886 11.7379 100.327 11.1395C100.757 10.541 101.104 9.94262 101.356 9.3442C101.608 8.74578 101.734 8.16841 101.734 7.62248C101.734 7.26551 101.671 6.91906 101.545 6.6041C101.419 6.27864 101.219 5.98469 100.936 5.72222C100.6 5.38627 100.232 5.22879 99.844 5.22879C99.697 5.22879 99.55 5.26027 99.4136 5.32327C99.2771 5.38626 99.1511 5.48075 99.0566 5.61723L97.8387 7.33899C97.7442 7.47547 97.6707 7.59096 97.6288 7.70645C97.5763 7.82193 97.5553 7.92692 97.5553 8.0319C97.5553 8.15789 97.5973 8.28389 97.6707 8.40982C97.7442 8.5358 97.8387 8.66179 97.9647 8.78777L98.3637 9.20772C98.4266 9.27071 98.4476 9.3337 98.4476 9.41769C98.4476 9.45968 98.4371 9.50168 98.4266 9.54367C98.4057 9.58567 98.3952 9.61716 98.3847 9.64866C98.2902 9.82714 98.1222 10.0476 97.8912 10.3206C97.6498 10.5935 97.3978 10.877 97.1248 11.15C96.8414 11.4334 96.5684 11.6854 96.2849 11.9269C96.012 12.1578 95.781 12.3153 95.6025 12.4098C95.571 12.4203 95.5395 12.4413 95.508 12.4518C95.466 12.4728 95.424 12.4728 95.3715 12.4728C95.2771 12.4728 95.2141 12.4413 95.1511 12.3783L94.7521 11.9794C94.6156 11.8429 94.4897 11.7484 94.3742 11.6854C94.2482 11.6119 94.1327 11.5699 93.9962 11.5699C93.8912 11.5699 93.7863 11.5909 93.6708 11.6434C93.5553 11.6959 93.4293 11.7589 93.3033 11.8534L91.5605 13.0922C91.4241 13.1867 91.3296 13.3022 91.2666 13.4282C91.2141 13.5646 91.1826 13.6906 91.1826 13.8376C91.2456 14.0161 91.2876 14.2156 91.3716 14.4045Z" fill="#EF7D0A"/>
</svg>
