<svg width="101" height="101" viewBox="0 0 101 101" fill="none" xmlns="http://www.w3.org/2000/svg">
<circle cx="50.5" cy="50.5" r="50.5" fill="white"/>
<path d="M27 21.0662H32.7773C33.0762 22.6336 33.2344 24.1891 33.6738 25.6619C35.4727 31.7481 40.4707 35.8292 46.9922 35.6872C60.5801 35.3915 59.0508 36.5508 67.5059 44.7663C69.9668 47.1558 72.3164 49.6577 75 52.4021C73.4941 53.4845 72.0117 54.5492 70.3887 55.7203C67.3711 52.5441 63.8145 48.806 60.2578 45.062C60.0117 45.1981 59.7598 45.3282 59.5137 45.4642V79.9645H53.584V62.6286H47.6777V80H41.748C41.748 79.0182 41.748 77.9772 41.748 76.9421C41.748 65.8048 41.7363 54.6675 41.7656 43.5301C41.7656 42.0692 41.6777 41.0578 39.9668 40.3835C31.418 37.0003 27.7617 30.1748 27 21.0662Z" fill="#EF7D0A"/>
<path d="M56.3906 26.7856C56.4316 29.7726 53.6133 32.7121 50.6484 32.7772C47.6953 32.8364 44.7832 30.0032 44.707 26.9927C44.625 24.0294 47.4668 21.0661 50.4434 21.0011C53.3906 20.936 56.3437 23.8106 56.3848 26.7856H56.3906Z" fill="#EF7D0A"/>
</svg>
