<svg width="101" height="101" viewBox="0 0 101 101" fill="none" xmlns="http://www.w3.org/2000/svg">
<circle cx="50.5" cy="50.5" r="50.5" fill="#EF7D0A"/>
<g clip-path="url(#clip0_59_69)">
<path d="M80.5485 45.5091C76.7738 41.1526 73.8955 36.6797 67.2363 38.2667C65.7179 38.6282 65.6996 37.5436 65.7179 36.4346C65.7545 33.6834 65.6264 30.9261 65.7667 28.1811C65.8581 26.4348 65.291 25.9753 63.5835 26.0059C56.9976 26.104 50.4055 26.0488 43.8134 26.0488C37.4287 26.0488 31.0379 26.0366 24.6532 26.0488C19.3722 26.0549 17.0183 28.3833 17.0122 33.6405C16.9939 43.0153 17 52.3901 17 61.7648C17 65.7537 17 65.8456 20.8784 65.7782C22.4639 65.7537 23.0006 66.1336 23.3604 67.7941C24.3056 72.1751 28.0925 75.0366 32.3246 74.9875C36.6908 74.9385 40.1607 72.2303 41.1242 67.6287C41.4657 65.9988 42.0511 65.7721 43.4415 65.7905C48.1065 65.8579 52.7716 65.8885 57.4305 65.7721C59.0343 65.7353 59.5527 66.1459 59.9003 67.8002C60.7479 71.8197 64.1629 74.6505 67.962 74.9569C71.9258 75.2755 75.8042 73.3883 76.9018 69.6078C77.8409 66.3848 79.2191 65.141 82.4206 65.7905C83.0182 65.913 84.0732 66.0846 83.9512 64.951C83.2622 58.4255 85.8478 51.6242 80.5424 45.503L80.5485 45.5091ZM32.2941 68.9522C30.2451 68.5539 29.0987 67.4877 29.2511 65.5944C29.3853 63.9094 30.4342 62.7452 32.2331 62.8126C34.093 62.88 35.2517 63.9523 35.2334 65.8946C35.2151 67.9044 33.782 68.56 32.2941 68.9522ZM59.6685 58.0517C59.6807 59.4487 59.1929 59.7367 57.9184 59.7245C52.0398 59.6693 46.1612 59.6754 40.2826 59.7245C39.2825 59.7306 38.6057 59.2894 37.8434 58.7441C33.8186 55.8581 30.7696 55.8152 26.7204 58.6828C25.7508 59.3691 24.8239 60.0492 23.708 59.6264C22.4152 59.1362 23.153 57.8556 23.1347 56.9672C23.0494 53.1989 23.0981 49.4306 23.0981 45.6623C23.0981 41.7898 23.153 37.9174 23.0677 34.0511C23.0372 32.6479 23.3482 32.121 24.8788 32.1271C35.8249 32.1945 46.771 32.1822 57.7232 32.1394C59.0587 32.1394 59.6929 32.317 59.6746 33.9163C59.5893 41.9614 59.6015 50.0127 59.6685 58.0578V58.0517ZM68.5535 68.8235C66.7972 68.7254 65.7667 67.549 65.7911 65.8211C65.8155 63.9584 66.9131 62.7391 68.8462 62.8126C70.7183 62.8861 71.7184 64.0564 71.8404 66.0294C71.4989 67.8125 70.45 68.9276 68.5596 68.8235H68.5535ZM67.2363 53.6033C66.0228 53.6278 65.6264 53.1989 65.7118 52.0286C65.7911 50.9134 65.5471 49.7492 65.7728 48.6769C66.0716 47.2554 64.5592 44.9148 66.6814 44.5533C68.9194 44.1734 71.6696 43.4075 73.3832 46.4221C74.7309 48.7872 76.603 50.8521 78.6337 53.5788C74.4687 53.5788 70.8464 53.5359 67.2302 53.6033H67.2363Z" fill="#FDFDFD"/>
</g>
<defs>
<clipPath id="clip0_59_69">
<rect width="67" height="49" fill="white" transform="translate(17 26)"/>
</clipPath>
</defs>
</svg>
