<svg width="101" height="101" viewBox="0 0 101 101" fill="none" xmlns="http://www.w3.org/2000/svg">
<circle cx="50.5" cy="50.5" r="50.5" fill="#FDFDFD"/>
<g clip-path="url(#clip0_59_198)">
<rect width="58" height="60" transform="translate(22 21)" fill="#FDFDFD"/>
<path d="M59.0761 77.7373C54.8984 73.5329 50.7088 69.3166 46.5193 65.1063C49.2489 62.2675 51.9608 62.2075 54.6547 64.9264C56.1166 66.4078 57.5607 67.9072 59.0998 69.4846C64.0203 64.4946 68.9765 59.6425 73.7068 54.5805C75.3767 52.7992 76.4701 52.4814 77.9439 54.5805C78.5084 55.3782 79.3463 55.972 79.9881 56.5897C72.964 63.6909 66.0052 70.7261 59.0642 77.7373H59.0761Z" fill="#EF7D0A"/>
<path d="M75.4186 33.6613C75.3533 29.6429 72.9108 27.1899 68.9115 27.0999C65.9461 27.028 62.9807 27.0399 60.0154 27.0999C58.2861 27.1359 57.151 26.908 56.0576 25.0547C53.2586 20.2986 45.7887 19.483 42.6035 23.9272C40.2977 27.1539 37.7483 27.2019 34.6344 27.0939C32.7565 27.028 30.8787 27.0579 29.0008 27.0879C24.4488 27.1479 22.0479 29.529 22.0242 34.0931C21.9885 40.6725 22.0123 47.2579 22.0182 53.8372C22.0182 60.6205 21.9766 67.4038 22.0301 74.1811C22.0658 78.4214 24.4963 80.9164 28.6205 80.9644C33.7608 81.0244 38.9012 80.9224 44.0416 81.0004C47.0961 81.0483 45.4678 78.8112 45.6936 77.6057C45.9254 76.3822 46.3117 74.8348 43.9049 74.9368C39.4658 75.1227 35.0029 74.8288 30.5637 75.0567C28.2104 75.1767 27.8776 74.349 27.8955 72.2319C27.9965 60.0627 28.0143 47.8996 27.8836 35.7305C27.8598 33.4214 28.5313 33.0735 30.6469 32.9656C33.4281 32.8216 34.2838 33.7573 33.9094 36.4022C33.743 37.5777 33.9926 38.8072 33.8559 39.9828C33.6479 41.7401 34.3729 42.1059 35.9953 42.0879C43.0135 42.004 50.0317 42.0519 57.05 42.0519C61.3326 42.0519 63.5017 39.8488 63.5572 35.4426C63.5572 35.2447 63.575 35.0407 63.5572 34.8428C63.266 32.0419 65.3875 33.1515 66.5463 33.1275C67.7289 33.1035 69.6543 32.1079 69.5354 34.8848C69.369 38.6693 69.6067 42.4658 69.4582 46.2503C69.3453 49.0571 71.3182 47.9536 72.483 47.9716C73.6656 47.9896 75.5791 49.0032 75.4721 46.2203C75.3117 42.0399 75.484 37.8416 75.4127 33.6553L75.4186 33.6613ZM48.558 33.0196C46.6979 32.8876 45.7055 31.6641 45.8125 29.8288C45.9135 28.1075 47.0664 27.1059 48.7422 27.1359C50.5725 27.1719 51.5531 28.3114 51.7135 30.2367C51.3332 31.904 50.4715 33.1575 48.558 33.0196Z" fill="#EF7D0A"/>
</g>
<defs>
<clipPath id="clip0_59_198">
<rect width="58" height="60" fill="white" transform="translate(22 21)"/>
</clipPath>
</defs>
</svg>
