<svg width="101" height="101" viewBox="0 0 101 101" fill="none" xmlns="http://www.w3.org/2000/svg">
<circle cx="50.5" cy="50.5" r="50.5" fill="#EF7D0A"/>
<path d="M50.5785 79.9847V74.4272H70.1483V71.5952H59.1562V49.0845H70.1823C70.7081 40.6725 67.9827 34.025 60.9374 29.6589C54.3274 25.5568 47.3159 25.4388 40.5646 29.3329C33.1404 33.6148 30.2623 40.3747 30.7147 49.0171H41.8142V71.3985C37.7544 71.3985 33.621 71.7075 29.5612 71.2917C26.8018 71.0051 25.0207 68.8024 25.032 65.9478C25.0603 58.0922 24.7606 50.1859 25.5635 42.392C27.0393 28.0124 42.4588 18.0271 56.5326 21.8032C68.1919 24.9275 75.7349 34.379 75.9215 46.4098C76.0628 55.4005 75.978 64.3913 75.9384 73.3821C75.9215 77.6864 73.6145 79.9509 69.2832 79.979C63.1539 80.0184 57.0245 79.9903 50.5785 79.9903V79.9847ZM30.8051 54.7319V65.7287H36.0807V54.7319H30.8051ZM64.771 54.7993V65.7624H70.1088V54.7993H64.771Z" fill="white"/>
</svg>
