<svg width="101" height="101" viewBox="0 0 101 101" fill="none" xmlns="http://www.w3.org/2000/svg">
<circle cx="50.5" cy="50.5" r="50.5" fill="#EF7D0A"/>
<g clip-path="url(#clip0_59_68)">
<path d="M60.0761 77.7373C55.8984 73.5329 51.7088 69.3166 47.5193 65.1063C50.2489 62.2675 52.9608 62.2075 55.6547 64.9264C57.1166 66.4078 58.5607 67.9072 60.0998 69.4846C65.0203 64.4946 69.9765 59.6425 74.7068 54.5805C76.3767 52.7992 77.4701 52.4814 78.9439 54.5805C79.5084 55.3782 80.3463 55.972 80.9881 56.5897C73.964 63.6909 67.0052 70.7261 60.0642 77.7373H60.0761Z" fill="#FDFDFD"/>
<path d="M76.4186 33.6613C76.3533 29.6429 73.9108 27.1899 69.9115 27.0999C66.9461 27.028 63.9807 27.0399 61.0154 27.0999C59.2861 27.1359 58.151 26.908 57.0576 25.0547C54.2586 20.2986 46.7887 19.483 43.6035 23.9272C41.2977 27.1539 38.7483 27.2019 35.6344 27.0939C33.7565 27.028 31.8787 27.0579 30.0008 27.0879C25.4488 27.1479 23.0479 29.529 23.0242 34.0931C22.9885 40.6725 23.0123 47.2579 23.0182 53.8372C23.0182 60.6205 22.9766 67.4038 23.0301 74.1811C23.0658 78.4214 25.4963 80.9164 29.6205 80.9644C34.7608 81.0244 39.9012 80.9224 45.0416 81.0004C48.0961 81.0483 46.4678 78.8112 46.6936 77.6057C46.9254 76.3822 47.3117 74.8348 44.9049 74.9368C40.4658 75.1227 36.0029 74.8288 31.5637 75.0567C29.2104 75.1767 28.8776 74.349 28.8955 72.2319C28.9965 60.0627 29.0143 47.8996 28.8836 35.7305C28.8598 33.4214 29.5313 33.0735 31.6469 32.9656C34.4281 32.8216 35.2838 33.7573 34.9094 36.4022C34.743 37.5777 34.9926 38.8072 34.8559 39.9828C34.6479 41.7401 35.3729 42.1059 36.9953 42.0879C44.0135 42.004 51.0317 42.0519 58.05 42.0519C62.3326 42.0519 64.5017 39.8488 64.5572 35.4426C64.5572 35.2447 64.575 35.0407 64.5572 34.8428C64.266 32.0419 66.3875 33.1515 67.5463 33.1275C68.7289 33.1035 70.6543 32.1079 70.5354 34.8848C70.369 38.6693 70.6067 42.4658 70.4582 46.2503C70.3453 49.0571 72.3182 47.9536 73.483 47.9716C74.6656 47.9896 76.5791 49.0032 76.4721 46.2203C76.3117 42.0399 76.484 37.8416 76.4127 33.6553L76.4186 33.6613ZM49.558 33.0196C47.6979 32.8876 46.7055 31.6641 46.8125 29.8288C46.9135 28.1075 48.0664 27.1059 49.7422 27.1359C51.5725 27.1719 52.5531 28.3114 52.7135 30.2367C52.3332 31.904 51.4715 33.1575 49.558 33.0196Z" fill="#FDFDFD"/>
</g>
<defs>
<clipPath id="clip0_59_68">
<rect width="58" height="60" fill="white" transform="translate(23 21)"/>
</clipPath>
</defs>
</svg>
