<svg width="282" height="87" viewBox="0 0 282 87" fill="none" xmlns="http://www.w3.org/2000/svg">
<path d="M20.9751 63.2557H38.6857V26.1553L53.1281 63.2557H68.1214L81.6899 26.1553V63.2557H99.7787V1.86143H74.7863L60.3769 38.5038L46.4633 1.86143H20.9751V63.2557Z" fill="#EF7D0A"/>
<path d="M230.59 44.0002C230.59 44.0002 227.682 47.0452 225.941 48.1151C213.923 55.4802 200.446 50.1305 198.276 36.9429C197.005 29.226 198.357 21.6776 205.962 17.09C213.405 12.5977 221.241 12.8615 227.98 18.8415C229.026 19.7722 230.113 20.4831 231.215 21.0181L250.31 19.0724C249.061 17.1853 244.68 9.58932 243.112 8.14927C232.584 -1.50966 206.112 -2.77382 191.626 5.39377C178.997 12.5134 172.946 27.5514 176.967 41.8236C181.325 57.2977 194.585 65.6155 214.815 65.5825C224.634 65.5093 234.259 64.1645 241.772 57.8913C243.388 56.5429 248.628 50.5299 250.313 48.837L230.601 44.0002H230.59Z" fill="#EF7D0A"/>
<path d="M32.2926 86.3954C32.2926 86.5566 32.2191 86.6336 32.0686 86.6336H29.3292C29.1786 86.6336 29.1052 86.542 29.1052 86.3624C29.1052 85.8421 29.1235 85.0616 29.1639 84.021C29.2043 82.9803 29.2227 82.1999 29.2227 81.6795C29.2227 81.5293 29.2007 81.4523 29.1529 81.4414C29.0978 81.4707 28.749 82.2658 28.1174 83.8268C27.7465 84.7428 27.3756 85.6552 27.0047 86.5676C26.9533 86.6849 26.8872 86.7545 26.8101 86.7765C26.7844 86.7802 26.6816 86.7838 26.5016 86.7838C26.2336 86.7838 26.072 86.7325 26.0206 86.6299C25.7415 86.062 25.3743 85.2412 24.9226 84.1602C24.4379 83.017 24.0744 82.1925 23.832 81.6832C23.821 81.6575 23.799 81.6282 23.7622 81.5989C23.7255 81.6466 23.7072 81.7198 23.7072 81.8224C23.7072 82.3281 23.7182 83.0829 23.7476 84.0943C23.7733 85.1019 23.788 85.8604 23.788 86.3661C23.788 86.5456 23.7145 86.6372 23.5713 86.6372H20.9861C20.8833 86.6372 20.8209 86.6189 20.7952 86.5859C20.7731 86.553 20.7621 86.4943 20.7621 86.4137C20.7621 85.8531 20.7878 85.0103 20.8429 83.8854C20.898 82.7605 20.9237 81.9177 20.9237 81.3571C20.9237 80.7598 20.898 79.6385 20.8466 77.997C20.8429 77.5683 20.8172 76.9343 20.7768 76.0879L20.7695 75.956C20.7658 75.8534 20.8723 75.8021 21.0963 75.8021C21.379 75.8021 21.805 75.7948 22.3742 75.7764C22.9434 75.7581 23.3657 75.7508 23.6521 75.7508C23.7072 75.7508 23.788 75.8607 23.8908 76.0769L26.1491 81.0273C26.3107 81.3607 26.4429 81.5293 26.5531 81.5293C26.6081 81.5293 26.7293 81.3351 26.9166 80.9503C27.438 79.8694 28.2092 78.2388 29.23 76.0623C29.3182 75.8607 29.4136 75.7618 29.5165 75.7618C29.667 75.7618 29.891 75.7691 30.1921 75.7838C30.4932 75.7984 30.7209 75.8058 30.8751 75.8058C31.0037 75.8058 31.202 75.7948 31.4663 75.7655C31.7307 75.7398 31.929 75.7251 32.0576 75.7251C32.2118 75.7251 32.2889 75.7874 32.2889 75.912C32.2889 76.5203 32.2669 77.4254 32.2228 78.6345C32.1787 79.8401 32.1567 80.7488 32.1567 81.3571C32.1567 81.9177 32.1787 82.7605 32.2265 83.8817C32.2742 85.003 32.2962 85.8421 32.2962 86.3991L32.2926 86.3954Z" fill="#EF7D0A"/>
<path d="M43.162 82.8448C43.162 84.1566 43.0041 85.0543 42.6883 85.5306C42.1118 86.4064 40.6687 86.8424 38.3626 86.8424C37.3197 86.8424 36.5192 86.7618 35.9573 86.6043C35.0613 86.3478 34.4775 85.8568 34.2094 85.1312C34.0735 84.7758 34.0074 84.1419 34.0074 83.2332C34.0074 83.0206 34.0148 82.7092 34.0295 82.2915C34.0442 81.8737 34.0515 81.5623 34.0515 81.3571C34.0515 80.7598 34.0221 79.8657 33.9671 78.6712C33.912 77.4767 33.8826 76.5826 33.8826 75.9926C33.8826 75.8681 33.9377 75.8058 34.0442 75.8058C34.36 75.8058 34.8337 75.8168 35.4726 75.8461C36.1079 75.8717 36.5853 75.8864 36.9011 75.8864C37.0296 75.8864 37.0957 75.9413 37.0957 76.0549C37.0957 76.7328 37.0737 77.7515 37.0296 79.1072C36.9855 80.463 36.9635 81.4817 36.9635 82.1595C36.9635 82.9693 37.048 83.5153 37.2205 83.7975C37.4482 84.1822 37.9219 84.3764 38.6453 84.3764C39.7029 84.3764 40.2317 83.8634 40.2317 82.8411C40.2317 82.0936 40.2133 80.976 40.1766 79.481C40.1399 77.9896 40.1215 76.8684 40.1215 76.1209C40.1215 75.9597 40.1876 75.8827 40.3161 75.8827C40.6209 75.8827 41.0799 75.8717 41.6932 75.8424C42.3064 75.8168 42.7654 75.8021 43.0702 75.8021C43.2208 75.8021 43.2942 75.8644 43.2942 75.989C43.2942 76.5826 43.2685 77.473 43.2208 78.6675C43.173 79.8621 43.1473 80.7561 43.1473 81.3534C43.1473 81.5183 43.1473 81.7675 43.1547 82.0973C43.1584 82.4307 43.162 82.6762 43.162 82.8411V82.8448Z" fill="#EF7D0A"/>
<path d="M51.9861 86.7655C51.5418 86.7655 50.9653 86.7545 50.2529 86.7362C49.3238 86.7142 48.7473 86.7032 48.5196 86.6959L46.2062 86.6666C45.9749 86.6702 45.6407 86.6629 45.2074 86.6372C45.0568 86.6116 44.9834 86.531 44.9834 86.3991C44.9834 85.8384 44.9907 84.9993 45.0091 83.8781C45.0275 82.7605 45.0348 81.9177 45.0348 81.3571C45.0348 80.7598 45.0164 79.8657 44.9797 78.6748C44.943 77.484 44.9246 76.5899 44.9246 75.9926C44.9246 75.879 45.0018 75.8241 45.156 75.8241C45.3102 75.8241 45.5416 75.8314 45.85 75.8461C46.1585 75.8607 46.3861 75.868 46.533 75.868C46.7019 75.868 46.9553 75.8607 47.2932 75.8424C47.6273 75.8241 47.8807 75.8167 48.0533 75.8167C48.1304 75.8167 48.1671 75.8644 48.1634 75.9633L48.1561 76.0622C48.0937 77.0296 48.0239 78.4843 47.9468 80.4264L47.9394 82.4637C47.9394 83.1232 47.9395 83.6032 47.9468 83.9074C47.9505 83.9697 47.9578 84.032 47.9615 84.0943C47.9652 84.1565 48.0055 84.1932 48.079 84.2115H48.281C48.7436 84.2115 49.4413 84.1859 50.3667 84.1382C51.2921 84.0906 51.9861 84.0649 52.4525 84.0649C52.592 84.0649 52.6618 84.1236 52.6618 84.2408C52.6618 85.1202 52.5957 85.8787 52.4672 86.52C52.4415 86.6556 52.3864 86.7325 52.3056 86.7582C52.2799 86.7691 52.1734 86.7728 51.9898 86.7728L51.9861 86.7655Z" fill="#EF7D0A"/>
<path d="M61.2692 78.1655C61.2692 78.2681 61.2141 78.3194 61.1003 78.3194C60.9057 78.3194 60.1272 78.2791 58.7722 78.2022C58.7428 79.503 58.7244 80.4117 58.7244 80.9284C58.7244 81.5366 58.7501 82.449 58.7979 83.6692C58.8456 84.8894 58.8713 85.8018 58.8713 86.4101C58.8713 86.509 58.8493 86.5713 58.8016 86.5969C58.7869 86.6079 58.7134 86.6189 58.5849 86.6372C58.2764 86.6775 57.8211 86.6995 57.2226 86.6995C56.5579 86.6995 56.0915 86.6775 55.8235 86.6372C55.6803 86.6116 55.6068 86.531 55.6068 86.3991C55.6068 85.7908 55.6325 84.8821 55.6839 83.6655C55.7353 82.449 55.7611 81.5403 55.7611 80.932C55.7611 80.5289 55.739 79.6349 55.6986 78.2461C54.6668 78.3487 53.8442 78.4 53.231 78.4C53.1502 78.4 53.1061 78.3744 53.1061 78.3231C53.1061 78.2571 53.1428 78.0593 53.2163 77.7295C53.2971 77.3704 53.3448 77.1505 53.3558 77.0736C53.3705 76.8317 53.3889 76.5899 53.4109 76.3481C53.4476 75.9633 53.51 75.7691 53.5982 75.7691C53.6092 75.7691 53.6459 75.7691 53.7083 75.7764C54.5456 75.8864 55.7794 75.9377 57.4135 75.9377C57.8762 75.9377 58.7355 75.89 59.984 75.7911C60.656 75.7398 60.9938 75.7141 60.9975 75.7141C61.1003 75.7141 61.1591 75.7215 61.1737 75.7325C61.1884 75.7435 61.1995 75.7948 61.2031 75.8827C61.2031 76.0219 61.1995 76.2161 61.1884 76.4616C61.1774 76.7328 61.1737 76.927 61.1737 77.0406C61.1737 77.1688 61.1921 77.3594 61.2252 77.6086C61.2582 77.8577 61.2766 78.0446 61.2766 78.1692L61.2692 78.1655Z" fill="#EF7D0A"/>
<path d="M65.4297 80.9284C65.4297 81.5366 65.4444 82.449 65.4775 83.6692C65.5105 84.8894 65.5252 85.8018 65.5252 86.4101C65.5252 86.5127 65.5032 86.5786 65.4554 86.6043C65.4444 86.6079 65.3783 86.6189 65.2535 86.6336C64.9193 86.6739 64.4676 86.6959 63.9058 86.6959C63.153 86.6959 62.672 86.6739 62.4663 86.6336C62.3158 86.6043 62.2423 86.5236 62.2423 86.3954C62.2423 86.476 62.2644 86.0253 62.3121 85.036C62.4039 82.951 62.4516 81.5806 62.4516 80.9284C62.4516 80.3787 62.4333 79.5506 62.3966 78.4513C62.3598 77.3484 62.3415 76.5239 62.3415 75.9743C62.3415 75.8607 62.4002 75.8058 62.5177 75.8058C62.6793 75.8058 62.918 75.8131 63.2411 75.8277C63.5643 75.8424 63.803 75.8497 63.9646 75.8497C64.1261 75.8497 64.3611 75.8424 64.6733 75.8277C64.9854 75.8131 65.2204 75.8058 65.382 75.8058C65.5325 75.8058 65.606 75.8607 65.606 75.9743C65.606 76.5239 65.5766 77.3521 65.5179 78.4513C65.4591 79.5543 65.4297 80.3787 65.4297 80.9284Z" fill="#EF7D0A"/>
<path d="M75.1241 84.2335C75.1241 84.4534 75.08 84.8601 74.9919 85.4537C74.9001 86.0986 74.8157 86.4797 74.7459 86.6043C74.6835 86.7032 74.599 86.7508 74.4888 86.7508C74.4411 86.7508 74.364 86.7435 74.2575 86.7289C73.8793 86.6776 72.7813 86.6519 70.9599 86.6519C70.5633 86.6519 69.9721 86.6519 69.1863 86.6446C68.4005 86.6409 67.8129 86.6372 67.4237 86.6372C67.2548 86.6372 67.1666 86.564 67.1666 86.4137C67.1666 85.8384 67.1997 84.97 67.2621 83.8158C67.3282 82.6616 67.3576 81.7931 67.3576 81.2178C67.3576 80.6426 67.3282 79.536 67.2658 77.9347C67.2511 77.5243 67.2217 76.9087 67.1813 76.0879L67.174 75.978C67.163 75.8607 67.2291 75.8021 67.3686 75.8021C67.7505 75.8021 68.3234 75.8131 69.0908 75.8314C69.8583 75.8497 70.4311 75.8607 70.813 75.8607C71.1949 75.8607 71.7568 75.8497 72.5169 75.8314C73.277 75.8131 73.8425 75.8021 74.2208 75.8021C74.4888 75.8021 74.6431 75.901 74.6835 76.1026C74.7092 76.2198 74.7496 76.5789 74.8046 77.1799C74.8597 77.7808 74.8854 78.1435 74.8854 78.2718C74.8854 78.3817 74.834 78.433 74.7312 78.433C74.7018 78.433 74.6467 78.433 74.5696 78.4257C73.1963 78.3121 71.9661 78.2571 70.8718 78.2571C70.6001 78.2571 70.4312 78.3231 70.3687 78.4513C70.343 78.5136 70.3283 78.7115 70.3283 79.0449C70.3283 79.3784 70.3797 79.6276 70.4826 79.7411C70.5707 79.8401 70.7396 79.8877 70.9856 79.8877C71.037 79.8877 71.1362 79.8877 71.2868 79.8767C71.4373 79.8694 71.5585 79.8657 71.6576 79.8657C72.3076 79.8657 72.9649 79.8474 73.6296 79.8108C73.6846 79.8071 73.8279 79.7924 74.0555 79.7705C74.2318 79.7485 74.3713 79.7411 74.4741 79.7411C74.599 79.7411 74.6614 79.7998 74.6614 79.917C74.6614 79.8071 74.6137 80.2028 74.5219 81.0969C74.4815 81.5073 74.4595 81.9214 74.4595 82.3318C74.4595 82.4344 74.386 82.4857 74.2355 82.4857L73.5378 82.4087C73.244 82.3794 72.572 82.3611 71.5254 82.3611H70.7066C70.4936 82.3611 70.3724 82.4124 70.3357 82.515C70.332 82.5406 70.3283 82.7019 70.3283 82.995C70.3283 83.3871 70.354 83.6399 70.4054 83.7535C70.4936 83.9477 70.8241 84.065 71.3969 84.1016C71.3859 84.1016 71.7641 84.1016 72.5279 84.1016C72.7997 84.1016 73.2073 84.0759 73.7471 84.0283C74.2869 83.9807 74.6908 83.955 74.9589 83.955C75.0727 83.955 75.1278 84.0466 75.1278 84.2335H75.1241Z" fill="#EF7D0A"/>
<path d="M94.6965 79.9317C94.6965 81.1775 94.3697 82.1852 93.7123 82.9584C93.011 83.7755 92.0452 84.1859 90.8114 84.1859C90.6057 84.1859 90.2936 84.1749 89.8787 84.1492C89.4637 84.1272 89.1516 84.1163 88.9459 84.1163C88.7256 84.1163 88.6118 84.2115 88.6118 84.4021C88.6118 84.6402 88.6338 84.992 88.6816 85.461C88.7293 85.93 88.7513 86.2782 88.7513 86.5127C88.7513 86.6299 88.6962 86.6885 88.5897 86.6885C88.2739 86.6885 87.8039 86.6812 87.1723 86.6629C86.5444 86.6446 86.0707 86.6372 85.7549 86.6372C85.6043 86.6372 85.5309 86.564 85.5309 86.4137C85.5309 85.8421 85.5382 84.9847 85.5566 83.8378C85.5749 82.6909 85.5823 81.8334 85.5823 81.2618C85.5823 79.6459 85.5125 77.9457 85.373 76.1649L85.3656 76.0549C85.3546 75.956 85.4317 75.8974 85.597 75.879C86.0009 75.8277 86.8859 75.8021 88.2593 75.8021C89.0708 75.8021 89.8456 75.8131 90.5874 75.8314C91.8102 75.8681 92.7943 76.2528 93.5434 76.982C94.3072 77.7331 94.6891 78.7152 94.6891 79.9317H94.6965ZM91.6082 80.0563C91.6082 78.8581 91.0244 78.2571 89.853 78.2571C89.0267 78.2571 88.5934 78.3048 88.553 78.3964C88.5163 78.4623 88.4979 79.0559 88.4979 80.1809C88.4979 80.3421 88.5053 80.5766 88.5163 80.8881C88.5273 81.1995 88.5347 81.434 88.5347 81.5953C88.5347 81.6979 88.9974 81.7492 89.9264 81.7492C91.0464 81.7492 91.6046 81.1849 91.6046 80.0599L91.6082 80.0563Z" fill="#EF7D0A"/>
<path d="M104.754 86.443C104.754 86.5346 104.688 86.6006 104.56 86.6372C104.406 86.6776 103.925 86.6995 103.12 86.6995C102.382 86.6995 101.909 86.6776 101.696 86.6372C101.519 86.6006 101.409 86.487 101.361 86.2891C101.185 85.549 101.049 85.1496 100.95 85.0983C100.869 85.0616 100.175 85.0433 98.8753 85.0433C97.9977 85.0433 97.5314 85.0653 97.4763 85.1129C97.3881 85.1935 97.289 85.472 97.1825 85.9374C97.0834 86.3661 96.9658 86.5969 96.8263 86.6336C96.65 86.6739 96.0625 86.6959 95.0637 86.6959C94.2742 86.6959 93.8813 86.6226 93.8813 86.4724C93.8813 86.3368 94.4651 84.6952 95.6292 81.5366C96.8924 78.1252 97.5791 76.2491 97.6893 75.9084C97.7517 75.7142 97.8251 75.6152 97.9059 75.6152C98.0454 75.6152 98.2621 75.6262 98.5522 75.6555C98.8423 75.6812 99.0626 75.6958 99.2058 75.6958C99.349 75.6958 99.551 75.6885 99.8227 75.6702C100.094 75.6519 100.296 75.6445 100.429 75.6445C100.528 75.6445 100.616 75.7288 100.7 75.901C100.954 76.4433 101.692 78.2938 102.915 81.4597C104.141 84.6476 104.758 86.3075 104.758 86.4467L104.754 86.443ZM99.2683 79.4077C99.1581 79.6349 98.9782 80.1259 98.7174 80.8807C98.4384 81.6832 98.2988 82.1559 98.2988 82.2951C98.2988 82.3867 98.4531 82.438 98.7615 82.449C98.9231 82.46 99.1838 82.4637 99.551 82.4637C99.8925 82.4637 100.08 82.4234 100.117 82.3391C100.128 82.3134 100.131 82.2768 100.131 82.2292C100.131 82.0606 100.014 81.5916 99.775 80.8221C99.5437 80.0819 99.3711 79.6056 99.2646 79.4004L99.2683 79.4077Z" fill="#EF7D0A"/>
<path d="M114.772 84.8894C114.772 84.97 114.717 85.0799 114.61 85.2155C113.659 86.3441 112.4 86.9047 110.828 86.9047C109.256 86.9047 107.912 86.3551 106.914 85.2595C105.937 84.2005 105.452 82.8594 105.452 81.2435C105.452 79.6276 105.929 78.3524 106.884 77.2605C107.879 76.1172 109.146 75.5456 110.685 75.5456C112.356 75.5456 113.667 76.0586 114.618 77.0809C114.721 77.1945 114.772 77.2934 114.772 77.3814C114.772 77.4803 114.592 77.8431 114.236 78.4697C113.876 79.0962 113.652 79.4517 113.56 79.5286C113.52 79.5689 113.468 79.5909 113.406 79.5909C113.38 79.5909 113.252 79.4883 113.02 79.2831C112.741 79.0376 112.47 78.8434 112.201 78.7042C111.794 78.499 111.372 78.3964 110.931 78.3964C110.171 78.3964 109.565 78.6785 109.113 79.2465C108.695 79.7705 108.485 80.419 108.485 81.1922C108.485 81.9653 108.695 82.6322 109.113 83.1599C109.569 83.7352 110.174 84.0246 110.931 84.0246C111.379 84.0246 111.805 83.9257 112.209 83.7315C112.473 83.6033 112.741 83.4237 113.013 83.1892C113.241 82.995 113.366 82.8961 113.391 82.8961C113.443 82.8961 113.494 82.9254 113.545 82.9803C113.626 83.0719 113.854 83.3944 114.217 83.944C114.596 84.5156 114.783 84.8308 114.783 84.8857L114.772 84.8894Z" fill="#EF7D0A"/>
<path d="M118.94 80.9284C118.94 81.5366 118.954 82.449 118.988 83.6692C119.021 84.8894 119.035 85.8018 119.035 86.4101C119.035 86.5127 119.013 86.5786 118.965 86.6043C118.954 86.6079 118.888 86.6189 118.764 86.6336C118.429 86.6739 117.978 86.6959 117.416 86.6959C116.663 86.6959 116.182 86.6739 115.976 86.6336C115.826 86.6043 115.752 86.5236 115.752 86.3954C115.752 86.476 115.774 86.0253 115.822 85.036C115.914 82.951 115.962 81.5806 115.962 80.9284C115.962 80.3787 115.943 79.5506 115.907 78.4513C115.87 77.3484 115.852 76.5239 115.852 75.9743C115.852 75.8607 115.91 75.8058 116.028 75.8058C116.189 75.8058 116.428 75.8131 116.751 75.8277C117.074 75.8424 117.313 75.8497 117.475 75.8497C117.636 75.8497 117.871 75.8424 118.183 75.8277C118.495 75.8131 118.73 75.8058 118.892 75.8058C119.043 75.8058 119.116 75.8607 119.116 75.9743C119.116 76.5239 119.087 77.3521 119.028 78.4513C118.969 79.5543 118.94 80.3787 118.94 80.9284Z" fill="#EF7D0A"/>
<path d="M131.454 81.2288C131.454 82.8338 130.94 84.1822 129.916 85.2668C128.869 86.3698 127.544 86.9194 125.939 86.9194C124.334 86.9194 123.023 86.3624 121.969 85.2522C120.937 84.1675 120.423 82.8264 120.423 81.2288C120.423 79.6312 120.937 78.2828 121.969 77.1908C123.023 76.0732 124.345 75.5163 125.939 75.5163C127.533 75.5163 128.843 76.0732 129.901 77.1908C130.937 78.2938 131.458 79.6385 131.458 81.2288H131.454ZM128.52 81.2142C128.52 80.441 128.285 79.7851 127.815 79.2465C127.323 78.6785 126.699 78.3964 125.935 78.3964C125.171 78.3964 124.591 78.6895 124.084 79.2758C123.592 79.8437 123.35 80.4923 123.35 81.2288C123.35 82.0166 123.578 82.6725 124.04 83.1965C124.525 83.7462 125.157 84.021 125.935 84.021C126.662 84.021 127.283 83.7315 127.793 83.1489C128.278 82.5919 128.52 81.947 128.52 81.2105V81.2142Z" fill="#EF7D0A"/>
<path d="M145.989 84.8894C145.989 84.97 145.933 85.0799 145.827 85.2155C144.876 86.3441 143.616 86.9047 142.045 86.9047C140.473 86.9047 139.129 86.3551 138.13 85.2595C137.153 84.2005 136.669 82.8594 136.669 81.2435C136.669 79.6276 137.146 78.3524 138.101 77.2605C139.096 76.1172 140.363 75.5456 141.901 75.5456C143.572 75.5456 144.883 76.0586 145.834 77.0809C145.937 77.1945 145.989 77.2934 145.989 77.3814C145.989 77.4803 145.809 77.8431 145.452 78.4697C145.093 79.0962 144.869 79.4517 144.777 79.5286C144.736 79.5689 144.685 79.5909 144.623 79.5909C144.597 79.5909 144.468 79.4883 144.237 79.2831C143.958 79.0376 143.686 78.8434 143.418 78.7042C143.01 78.499 142.588 78.3964 142.148 78.3964C141.387 78.3964 140.781 78.6785 140.33 79.2465C139.911 79.7705 139.702 80.419 139.702 81.1922C139.702 81.9653 139.911 82.6322 140.33 83.1599C140.785 83.7352 141.391 84.0246 142.148 84.0246C142.596 84.0246 143.021 83.9257 143.425 83.7315C143.69 83.6033 143.958 83.4237 144.23 83.1892C144.457 82.995 144.582 82.8961 144.608 82.8961C144.659 82.8961 144.711 82.9254 144.762 82.9803C144.843 83.0719 145.071 83.3944 145.434 83.944C145.812 84.5156 146 84.8308 146 84.8857L145.989 84.8894Z" fill="#EF7D0A"/>
<path d="M157.765 81.2288C157.765 82.8338 157.251 84.1822 156.226 85.2668C155.18 86.3698 153.854 86.9194 152.25 86.9194C150.645 86.9194 149.334 86.3624 148.28 85.2522C147.248 84.1675 146.734 82.8264 146.734 81.2288C146.734 79.6312 147.248 78.2828 148.28 77.1908C149.334 76.0732 150.656 75.5163 152.25 75.5163C153.843 75.5163 155.154 76.0732 156.212 77.1908C157.247 78.2938 157.769 79.6385 157.769 81.2288H157.765ZM154.831 81.2142C154.831 80.441 154.596 79.7851 154.126 79.2465C153.634 78.6785 153.01 78.3964 152.246 78.3964C151.482 78.3964 150.902 78.6895 150.395 79.2758C149.903 79.8437 149.661 80.4923 149.661 81.2288C149.661 82.0166 149.888 82.6725 150.351 83.1965C150.836 83.7462 151.467 84.021 152.246 84.021C152.973 84.021 153.594 83.7315 154.104 83.1489C154.589 82.5919 154.831 81.947 154.831 81.2105V81.2142Z" fill="#EF7D0A"/>
<path d="M169.461 76.0403C169.461 76.6265 169.435 77.5096 169.387 78.6858C169.34 79.8621 169.314 80.7451 169.314 81.3387V86.4284C169.314 86.5676 169.24 86.6372 169.09 86.6372C168.965 86.6372 168.778 86.6409 168.528 86.6519C168.278 86.6629 168.091 86.6666 167.966 86.6666C167.83 86.6666 167.632 86.6556 167.364 86.6372C167.096 86.6189 166.894 86.6079 166.762 86.6079C166.67 86.6079 166.556 86.5236 166.428 86.3514C166.057 85.8531 165.219 84.7465 163.92 83.0316C163.563 82.5516 163.024 81.8481 162.293 80.9174C162.271 80.8881 162.234 80.8551 162.175 80.8258C162.135 80.8624 162.113 80.9174 162.113 80.9943C162.113 81.5916 162.128 82.4857 162.164 83.6802C162.201 84.8747 162.216 85.7688 162.216 86.3661C162.216 86.5456 162.146 86.6372 162.006 86.6372H159.329C159.179 86.6372 159.105 86.5566 159.105 86.3991C159.105 85.8421 159.131 85.003 159.186 83.8817C159.241 82.7605 159.267 81.9177 159.267 81.3571C159.267 80.7635 159.241 79.8804 159.193 78.7005C159.146 77.5206 159.12 76.6375 159.12 76.0513C159.12 75.9377 159.219 75.8827 159.421 75.8827C159.719 75.8827 160.089 75.8607 160.526 75.8204C160.629 75.8094 160.835 75.7764 161.136 75.7215C161.393 75.6738 161.599 75.6519 161.746 75.6519C161.808 75.6519 161.904 75.7398 162.032 75.9157L164.918 79.8621C165.175 80.2175 165.565 80.7378 166.086 81.423C166.215 81.5843 166.325 81.6612 166.42 81.6612C166.486 81.6612 166.519 81.4597 166.519 81.0603C166.519 80.518 166.49 79.7045 166.431 78.6199C166.372 77.5353 166.343 76.7181 166.343 76.1722C166.343 75.9816 166.398 75.8864 166.505 75.8864C166.813 75.8864 167.279 75.8754 167.904 75.8461C168.528 75.8167 168.994 75.8058 169.303 75.8058C169.402 75.8058 169.45 75.8864 169.45 76.0439L169.461 76.0403Z" fill="#EF7D0A"/>
<path d="M178.626 78.1655C178.626 78.2681 178.571 78.3194 178.457 78.3194C178.263 78.3194 177.484 78.2791 176.129 78.2022C176.1 79.503 176.082 80.4117 176.082 80.9284C176.082 81.5366 176.107 82.449 176.155 83.6692C176.203 84.8894 176.228 85.8018 176.228 86.4101C176.228 86.509 176.206 86.5713 176.159 86.5969C176.144 86.6079 176.071 86.6189 175.942 86.6372C175.634 86.6775 175.178 86.6995 174.58 86.6995C173.915 86.6995 173.449 86.6775 173.181 86.6372C173.037 86.6116 172.964 86.531 172.964 86.3991C172.964 85.7908 172.99 84.8821 173.041 83.6655C173.092 82.449 173.118 81.5403 173.118 80.932C173.118 80.5289 173.096 79.6349 173.056 78.2461C172.024 78.3487 171.201 78.4 170.588 78.4C170.507 78.4 170.463 78.3744 170.463 78.3231C170.463 78.2571 170.5 78.0593 170.573 77.7295C170.654 77.3704 170.702 77.1505 170.713 77.0736C170.728 76.8317 170.746 76.5899 170.768 76.3481C170.805 75.9633 170.867 75.7691 170.955 75.7691C170.966 75.7691 171.003 75.7691 171.065 75.7764C171.903 75.8864 173.136 75.9377 174.771 75.9377C175.233 75.9377 176.093 75.89 177.341 75.7911C178.013 75.7398 178.351 75.7141 178.355 75.7141C178.457 75.7141 178.516 75.7215 178.531 75.7325C178.546 75.7435 178.557 75.7948 178.56 75.8827C178.56 76.0219 178.557 76.2161 178.546 76.4616C178.535 76.7328 178.531 76.927 178.531 77.0406C178.531 77.1688 178.549 77.3594 178.582 77.6086C178.615 77.8577 178.634 78.0446 178.634 78.1692L178.626 78.1655Z" fill="#EF7D0A"/>
<path d="M187.568 84.2335C187.568 84.4534 187.524 84.8601 187.436 85.4537C187.344 86.0986 187.259 86.4797 187.19 86.6043C187.127 86.7032 187.043 86.7508 186.933 86.7508C186.885 86.7508 186.808 86.7435 186.701 86.7289C186.323 86.6776 185.225 86.6519 183.404 86.6519C183.007 86.6519 182.416 86.6519 181.63 86.6446C180.844 86.6372 180.257 86.6372 179.867 86.6372C179.699 86.6372 179.61 86.564 179.61 86.4137C179.61 85.8384 179.643 84.97 179.706 83.8158C179.772 82.6616 179.801 81.7931 179.801 81.2178C179.801 80.6426 179.772 79.536 179.71 77.9347C179.695 77.5243 179.666 76.9087 179.625 76.0879L179.618 75.978C179.607 75.8607 179.673 75.8021 179.812 75.8021C180.194 75.8021 180.767 75.8131 181.535 75.8314C182.302 75.8534 182.875 75.8607 183.257 75.8607C183.639 75.8607 184.201 75.8497 184.961 75.8314C185.721 75.8131 186.286 75.8021 186.665 75.8021C186.933 75.8021 187.087 75.901 187.127 76.1026C187.153 76.2198 187.193 76.5789 187.248 77.1799C187.304 77.7808 187.329 78.1435 187.329 78.2718C187.329 78.3817 187.278 78.433 187.175 78.433C187.146 78.433 187.091 78.433 187.013 78.4257C185.64 78.3121 184.41 78.2571 183.316 78.2571C183.044 78.2571 182.875 78.3231 182.813 78.4513C182.787 78.5136 182.772 78.7115 182.772 79.0449C182.772 79.3784 182.824 79.6276 182.926 79.7411C183.014 79.8401 183.183 79.8877 183.429 79.8877C183.481 79.8877 183.58 79.8877 183.731 79.8767C183.881 79.8694 184.002 79.8657 184.101 79.8657C184.751 79.8657 185.409 79.8474 186.073 79.8108C186.128 79.8071 186.272 79.7924 186.499 79.7705C186.676 79.7485 186.815 79.7411 186.918 79.7411C187.043 79.7411 187.105 79.7998 187.105 79.917C187.105 79.8071 187.057 80.2028 186.966 81.0969C186.925 81.5073 186.903 81.9214 186.903 82.3318C186.903 82.4344 186.83 82.4857 186.679 82.4857L185.982 82.4087C185.688 82.3794 185.016 82.3611 183.969 82.3611H183.15C182.937 82.3611 182.816 82.4124 182.779 82.515C182.776 82.5406 182.772 82.7019 182.772 82.995C182.772 83.3871 182.798 83.6399 182.849 83.7535C182.937 83.9477 183.268 84.065 183.841 84.1016C183.83 84.1016 184.208 84.1016 184.972 84.1016C185.243 84.1016 185.651 84.0759 186.191 84.0283C186.731 83.9807 187.135 83.955 187.403 83.955C187.517 83.955 187.572 84.0466 187.572 84.2335H187.568Z" fill="#EF7D0A"/>
<path d="M199.142 76.0403C199.142 76.6265 199.117 77.5096 199.069 78.6858C199.021 79.8621 198.996 80.7451 198.996 81.3387V86.4284C198.996 86.5676 198.922 86.6372 198.772 86.6372C198.647 86.6372 198.459 86.6409 198.21 86.6519C197.96 86.6629 197.773 86.6666 197.648 86.6666C197.512 86.6666 197.314 86.6556 197.046 86.6372C196.778 86.6189 196.576 86.6079 196.443 86.6079C196.352 86.6079 196.238 86.5236 196.109 86.3514C195.738 85.8531 194.901 84.7465 193.601 83.0316C193.245 82.5516 192.705 81.8481 191.974 80.9174C191.952 80.8881 191.916 80.8551 191.857 80.8258C191.817 80.8624 191.795 80.9174 191.795 80.9943C191.795 81.5916 191.813 82.4857 191.846 83.6802C191.879 84.8747 191.897 85.7688 191.897 86.3661C191.897 86.5456 191.828 86.6372 191.688 86.6372H189.011C188.86 86.6372 188.787 86.5566 188.787 86.3991C188.787 85.8421 188.813 85.003 188.868 83.8817C188.923 82.7605 188.949 81.9177 188.949 81.3571C188.949 80.7635 188.923 79.8804 188.875 78.7005C188.827 77.5206 188.802 76.6375 188.802 76.0513C188.802 75.9377 188.901 75.8827 189.103 75.8827C189.4 75.8827 189.771 75.8607 190.208 75.8204C190.311 75.8094 190.517 75.7764 190.818 75.7215C191.075 75.6738 191.28 75.6519 191.427 75.6519C191.49 75.6519 191.585 75.7398 191.714 75.9157L194.6 79.8621C194.857 80.2175 195.246 80.7378 195.768 81.423C195.896 81.5843 196.006 81.6612 196.102 81.6612C196.168 81.6612 196.201 81.4597 196.201 81.0603C196.201 80.518 196.172 79.7045 196.113 78.6199C196.054 77.5353 196.025 76.7181 196.025 76.1722C196.025 75.9816 196.08 75.8864 196.186 75.8864C196.495 75.8864 196.961 75.8754 197.585 75.8461C198.21 75.8167 198.676 75.8058 198.985 75.8058C199.084 75.8058 199.131 75.8864 199.131 76.0439L199.142 76.0403Z" fill="#EF7D0A"/>
<path d="M208.697 84.2335C208.697 84.4534 208.653 84.8601 208.565 85.4537C208.473 86.0986 208.389 86.4797 208.319 86.6043C208.257 86.7032 208.172 86.7508 208.062 86.7508C208.014 86.7508 207.937 86.7435 207.831 86.7289C207.452 86.6776 206.354 86.6519 204.533 86.6519C204.136 86.6519 203.545 86.6519 202.759 86.6446C201.974 86.6372 201.386 86.6372 200.997 86.6372C200.828 86.6372 200.74 86.564 200.74 86.4137C200.74 85.8384 200.773 84.97 200.835 83.8158C200.901 82.6616 200.931 81.7931 200.931 81.2178C200.931 80.6426 200.901 79.536 200.839 77.9347C200.824 77.5243 200.795 76.9087 200.754 76.0879L200.747 75.978C200.736 75.8607 200.802 75.8021 200.942 75.8021C201.324 75.8021 201.897 75.8131 202.664 75.8314C203.431 75.8534 204.004 75.8607 204.386 75.8607C204.768 75.8607 205.33 75.8497 206.09 75.8314C206.85 75.8131 207.416 75.8021 207.794 75.8021C208.062 75.8021 208.216 75.901 208.257 76.1026C208.282 76.2198 208.323 76.5789 208.378 77.1799C208.433 77.7808 208.459 78.1435 208.459 78.2718C208.459 78.3817 208.407 78.433 208.304 78.433C208.275 78.433 208.22 78.433 208.143 78.4257C206.769 78.3121 205.539 78.2571 204.445 78.2571C204.173 78.2571 204.004 78.3231 203.942 78.4513C203.916 78.5136 203.901 78.7115 203.901 79.0449C203.901 79.3784 203.953 79.6276 204.056 79.7411C204.144 79.8401 204.313 79.8877 204.559 79.8877C204.61 79.8877 204.709 79.8877 204.86 79.8767C205.01 79.8694 205.132 79.8657 205.231 79.8657C205.881 79.8657 206.538 79.8474 207.203 79.8108C207.258 79.8071 207.401 79.7924 207.629 79.7705C207.805 79.7485 207.944 79.7411 208.047 79.7411C208.172 79.7411 208.235 79.7998 208.235 79.917C208.235 79.8071 208.187 80.2028 208.095 81.0969C208.055 81.5073 208.033 81.9214 208.033 82.3318C208.033 82.4344 207.959 82.4857 207.809 82.4857L207.111 82.4087C206.817 82.3794 206.145 82.3611 205.099 82.3611H204.28C204.067 82.3611 203.946 82.4124 203.909 82.515C203.905 82.5406 203.901 82.7019 203.901 82.995C203.901 83.3871 203.927 83.6399 203.979 83.7535C204.067 83.9477 204.397 84.065 204.97 84.1016C204.959 84.1016 205.337 84.1016 206.101 84.1016C206.373 84.1016 206.78 84.0759 207.32 84.0283C207.86 83.9807 208.264 83.955 208.532 83.955C208.646 83.955 208.701 84.0466 208.701 84.2335H208.697Z" fill="#EF7D0A"/>
<path d="M219.141 86.5566C219.141 86.5933 219.089 86.6189 218.987 86.6336C218.792 86.6629 218.296 86.6812 217.51 86.6812C216.835 86.6812 216.376 86.6666 216.133 86.6336C216.019 86.6189 215.957 86.6043 215.939 86.5933C215.909 86.5786 215.873 86.5273 215.829 86.4394C215.751 86.2378 215.638 85.941 215.487 85.5453C215.285 85.0323 214.973 84.2702 214.543 83.2661C214.451 83.0646 214.235 82.9547 213.901 82.9327C214.055 82.9437 213.79 82.9474 213.104 82.9474C213.027 82.9474 212.986 83.0793 212.986 83.3394C212.986 83.6912 213.019 84.2115 213.082 84.9077C213.144 85.6039 213.177 86.1243 213.177 86.476C213.177 86.564 213.155 86.6153 213.107 86.6299C213.034 86.6336 212.964 86.6409 212.891 86.6446C212.586 86.6666 212.112 86.6739 211.466 86.6739C210.728 86.6739 210.284 86.6592 210.137 86.6263C209.99 86.5933 209.913 86.5163 209.913 86.3881C209.913 85.8201 209.938 84.9664 209.994 83.8231C210.049 82.6799 210.074 81.8224 210.074 81.2508C210.074 79.0743 210.027 77.3741 209.927 76.1539L209.92 76.0439C209.916 75.956 209.997 75.8974 210.162 75.8681C210.331 75.8387 211.117 75.8058 212.527 75.7764C213.482 75.7545 214.242 75.7471 214.811 75.7471C215.986 75.7471 216.949 76.011 217.69 76.5423C218.531 77.1395 218.95 78.0006 218.95 79.1292C218.95 79.8804 218.84 80.4813 218.623 80.9284C218.406 81.3754 218.006 81.8114 217.422 82.2328C217.305 82.3134 217.246 82.3941 217.246 82.4637C217.246 82.46 217.562 83.1049 218.19 84.4021C218.818 85.6992 219.133 86.4137 219.133 86.5493L219.141 86.5566ZM215.891 79.6312C215.891 79.0046 215.685 78.5686 215.27 78.3268C214.951 78.1399 214.451 78.0483 213.768 78.0483C213.276 78.0483 213.019 78.1216 212.986 78.2718C212.957 78.4477 212.939 78.9497 212.939 79.7851C212.939 79.9024 212.939 80.0783 212.946 80.3091C212.953 80.54 212.953 80.7122 212.953 80.8258C212.953 80.8514 213.034 80.8771 213.199 80.9027C213.515 80.9503 213.846 80.9723 214.191 80.9723C215.322 80.9723 215.884 80.5253 215.884 79.6276L215.891 79.6312Z" fill="#EF7D0A"/>
<path d="M234.435 84.9444C234.435 85.4537 234.259 85.8897 233.906 86.2488C233.554 86.6079 233.124 86.7911 232.617 86.7911C232.111 86.7911 231.685 86.6079 231.332 86.2452C230.98 85.8824 230.807 85.45 230.807 84.9444C230.807 84.4387 230.983 84.0063 231.332 83.6472C231.681 83.2881 232.111 83.1049 232.617 83.1049C233.124 83.1049 233.554 83.2845 233.906 83.6472C234.259 84.0063 234.435 84.4387 234.435 84.9444Z" fill="#EF7D0A"/>
<path d="M245.955 86.443C245.955 86.5346 245.888 86.6006 245.76 86.6372C245.606 86.6776 245.125 86.6995 244.32 86.6995C243.582 86.6995 243.109 86.6776 242.896 86.6372C242.719 86.6006 242.609 86.487 242.561 86.2891C242.385 85.549 242.249 85.1496 242.15 85.0983C242.069 85.0616 241.375 85.0433 240.075 85.0433C239.198 85.0433 238.731 85.0653 238.676 85.1129C238.588 85.1935 238.489 85.472 238.383 85.9374C238.283 86.3661 238.166 86.5969 238.026 86.6336C237.85 86.6739 237.263 86.6959 236.264 86.6959C235.474 86.6959 235.081 86.6226 235.081 86.4724C235.081 86.3368 235.665 84.6952 236.829 81.5366C238.093 78.1252 238.779 76.2491 238.889 75.9084C238.952 75.7142 239.025 75.6152 239.106 75.6152C239.246 75.6152 239.462 75.6262 239.752 75.6555C240.042 75.6812 240.263 75.6958 240.406 75.6958C240.549 75.6958 240.751 75.6885 241.023 75.6702C241.295 75.6519 241.497 75.6445 241.629 75.6445C241.728 75.6445 241.816 75.7288 241.901 75.901C242.154 76.4433 242.892 78.2938 244.115 81.4597C245.341 84.6476 245.958 86.3075 245.958 86.4467L245.955 86.443ZM240.468 79.4077C240.358 79.6349 240.178 80.1259 239.918 80.8807C239.638 81.6832 239.499 82.1559 239.499 82.2951C239.499 82.3867 239.653 82.438 239.962 82.449C240.123 82.46 240.384 82.4637 240.751 82.4637C241.093 82.4637 241.28 82.4234 241.317 82.3391C241.328 82.3134 241.331 82.2768 241.331 82.2292C241.331 82.0606 241.214 81.5916 240.975 80.8221C240.744 80.0819 240.571 79.6056 240.465 79.4004L240.468 79.4077Z" fill="#EF7D0A"/>
<path d="M250.262 84.9444C250.262 85.4537 250.086 85.8897 249.733 86.2488C249.381 86.6079 248.951 86.7911 248.444 86.7911C247.937 86.7911 247.511 86.6079 247.159 86.2452C246.806 85.8824 246.634 85.45 246.634 84.9444C246.634 84.4387 246.81 84.0063 247.159 83.6472C247.508 83.2881 247.937 83.1049 248.444 83.1049C248.951 83.1049 249.381 83.2845 249.733 83.6472C250.086 84.0063 250.262 84.4387 250.262 84.9444Z" fill="#EF7D0A"/>
<path d="M76.5819 86.6263C76.5195 85.505 76.4461 84.6073 76.3616 83.933C76.9051 84.1969 77.3935 84.3801 77.8158 84.4827C78.2381 84.5853 78.6163 84.6366 78.9358 84.6366C79.3581 84.6366 79.6959 84.5706 79.9456 84.435C80.1953 84.2995 80.3201 84.1016 80.3201 83.8378C80.3201 83.7498 80.3091 83.6619 80.2834 83.5813C80.2577 83.5007 80.2137 83.409 80.1439 83.3065C80.0778 83.2039 79.9786 83.0939 79.8538 82.9693L78.4804 81.6759C78.1573 81.3827 77.9333 81.1665 77.8084 81.0383C77.5514 80.7708 77.3494 80.5216 77.2062 80.2871C77.063 80.0563 76.9565 79.8218 76.8904 79.5799C76.8243 79.3417 76.7912 79.0852 76.7912 78.8178C76.7912 78.4953 76.8427 78.1838 76.9492 77.876C77.052 77.5683 77.2099 77.2788 77.4192 77.0113C77.6285 76.7438 77.9039 76.513 78.2491 76.3151C78.5943 76.1209 78.9615 75.989 79.3544 75.9157C79.7473 75.8424 80.1512 75.8094 80.5699 75.8094C81.3887 75.8094 82.2847 75.912 83.2505 76.1172C83.2652 76.48 83.2835 76.8134 83.3019 77.1176C83.3203 77.4217 83.368 77.9493 83.4414 78.7078C82.9934 78.5136 82.5858 78.378 82.2186 78.3011C81.8477 78.2242 81.5319 78.1875 81.2639 78.1875C80.8857 78.1875 80.5699 78.2645 80.3201 78.4147C80.0704 78.5686 79.9456 78.7555 79.9456 78.9826C79.9456 79.0889 79.964 79.1915 80.0043 79.2904C80.0447 79.3894 80.1145 79.5066 80.2247 79.6422C80.3312 79.7778 80.4707 79.9244 80.647 80.0856C80.8232 80.2468 81.095 80.485 81.4695 80.8001L81.9946 81.2508C82.1489 81.3864 82.3178 81.5549 82.4977 81.7492C82.6776 81.9434 82.8319 82.1376 82.9641 82.3244C83.0963 82.5113 83.1954 82.6872 83.2652 82.8448C83.335 83.0023 83.3864 83.1635 83.4231 83.3211C83.4561 83.4823 83.4745 83.6546 83.4745 83.8378C83.4745 84.3105 83.368 84.7612 83.1624 85.1899C82.9531 85.6186 82.6556 85.9704 82.2737 86.2488C81.8918 86.5237 81.4695 86.7179 81.0105 86.8278C80.5515 86.9377 80.0668 86.9927 79.5563 86.9927C78.7705 86.9927 77.7754 86.8681 76.5783 86.6226L76.5819 86.6263Z" fill="#EF7D0A"/>
<path d="M222.941 86.6263C222.879 85.505 222.806 84.6073 222.721 83.933C223.265 84.1969 223.753 84.3801 224.175 84.4827C224.598 84.5853 224.976 84.6366 225.295 84.6366C225.718 84.6366 226.055 84.5706 226.305 84.435C226.555 84.2995 226.68 84.1016 226.68 83.8378C226.68 83.7498 226.669 83.6619 226.643 83.5813C226.617 83.5007 226.573 83.409 226.503 83.3065C226.437 83.2039 226.338 83.0939 226.213 82.9693L224.84 81.6759C224.517 81.3827 224.293 81.1665 224.168 81.0383C223.911 80.7708 223.709 80.5216 223.566 80.2871C223.422 80.0563 223.316 79.8218 223.25 79.5799C223.184 79.3417 223.151 79.0852 223.151 78.8178C223.151 78.4953 223.202 78.1838 223.309 77.876C223.411 77.5683 223.569 77.2788 223.779 77.0113C223.988 76.7438 224.263 76.513 224.609 76.3151C224.954 76.1209 225.321 75.989 225.714 75.9157C226.107 75.8424 226.511 75.8094 226.929 75.8094C227.748 75.8094 228.644 75.912 229.61 76.1172C229.625 76.48 229.643 76.8134 229.661 77.1176C229.68 77.4217 229.727 77.9493 229.801 78.7078C229.353 78.5136 228.945 78.378 228.578 78.3011C228.207 78.2242 227.891 78.1875 227.623 78.1875C227.245 78.1875 226.929 78.2645 226.68 78.4147C226.43 78.5686 226.305 78.7555 226.305 78.9826C226.305 79.0889 226.323 79.1915 226.364 79.2904C226.404 79.3894 226.474 79.5066 226.584 79.6422C226.691 79.7778 226.83 79.9244 227.006 80.0856C227.183 80.2468 227.454 80.485 227.829 80.8001L228.354 81.2508C228.508 81.3864 228.677 81.5549 228.857 81.7492C229.037 81.9434 229.191 82.1376 229.324 82.3244C229.456 82.5113 229.555 82.6872 229.625 82.8448C229.694 83.0023 229.746 83.1635 229.783 83.3211C229.816 83.4823 229.834 83.6546 229.834 83.8378C229.834 84.3105 229.727 84.7612 229.522 85.1899C229.312 85.6186 229.015 85.9704 228.633 86.2488C228.251 86.5237 227.829 86.7179 227.37 86.8278C226.911 86.9377 226.426 86.9927 225.916 86.9927C225.13 86.9927 224.135 86.8681 222.938 86.6226L222.941 86.6263Z" fill="#EF7D0A"/>
<path d="M111.68 1.86143V63.2557H167.801V51.3323L131.421 51.0941V39.6947H167.801V25.2063L131.421 25.4445V14.9941L167.801 15.2286V1.86143H111.68Z" fill="#EF7D0A"/>
</svg>
