<svg width="39" height="39" viewBox="0 0 39 39" fill="none" xmlns="http://www.w3.org/2000/svg">
<path d="M19.14 0C8.59386 0 0 8.59386 0 19.14C0 29.6861 8.59386 38.28 19.14 38.28C29.6861 38.28 38.28 29.6861 38.28 19.14C38.28 8.59386 29.6861 0 19.14 0ZM25.571 23.5422C26.1261 24.0973 26.1261 25.016 25.571 25.571C25.2839 25.8581 24.9203 25.9921 24.5566 25.9921C24.193 25.9921 23.8293 25.8581 23.5422 25.571L19.14 21.1688L14.7378 25.571C14.4507 25.8581 14.087 25.9921 13.7234 25.9921C13.3597 25.9921 12.9961 25.8581 12.709 25.571C12.1539 25.016 12.1539 24.0973 12.709 23.5422L17.1112 19.14L12.709 14.7378C12.1539 14.1827 12.1539 13.264 12.709 12.709C13.264 12.1539 14.1827 12.1539 14.7378 12.709L19.14 17.1112L23.5422 12.709C24.0973 12.1539 25.016 12.1539 25.571 12.709C26.1261 13.264 26.1261 14.1827 25.571 14.7378L21.1688 19.14L25.571 23.5422Z" fill="#EF7D0A"/>
</svg>
